#!OML:ASF X:\für Bonn\!DataBase\2005_08_10_Bjorn_Final\c3d\bjorn.ASF
:FULLY-SPECIFIED
:DEGREES
189
root 1.54191 18.4795 3.41172 -179.42 8.29248 -171.896
lowerback -1.68074 1.57143 5.71275
upperback 11.1681 2.87314 -0.0137141
thorax 13.3633 2.47566 -2.70132
lowerneck -1.04684 0.518683 1.3842
upperneck 12.1591 1.55285 -3.07382
head 4.21239 0.923036 -1.19558
rclavicle 2.18663e-014 -7.95139e-015
rhumerus -20.9622 -5.91669 -83.3293
rradius 42.9526
rwrist -3.45541
rhand -9.96586 10.7734
rfingers 7.12502
rthumb 16.0165 -18.5845
lclavicle 2.18663e-014 -7.95139e-015
lhumerus -37.1018 -6.58705 91.3906
lradius 63.9266
lwrist -22.6051
lhand -28.2945 -1.30019
lfingers 7.12502
lthumb -1.6703 28.673
rfemur -22.699 -23.7551 28.7248
rtibia 44.1821
rfoot 0.730387 42.2695
rtoes 17.0339
lfemur -5.47346 5.58724 -6.90808
ltibia 42.3256
lfoot -27.1147 7.81532
ltoes -18.0477
190
root 1.51578 18.4876 3.47108 -179.149 8.04373 -171.924
lowerback -1.60341 1.57505 5.55078
upperback 11.1525 2.92067 -0.22443
thorax 13.3037 2.49537 -2.84065
lowerneck -1.32624 0.47695 1.22111
upperneck 12.0162 1.41929 -2.67126
head 4.20448 0.852295 -1.03606
rclavicle -3.37934e-014 2.14687e-014
rhumerus -21.1769 -6.21198 -83.5054
rradius 43.3172
rwrist -3.59567
rhand -10.0005 10.8109
rfingers 7.12502
rthumb 15.9832 -18.5497
lclavicle -3.37934e-014 2.14687e-014
lhumerus -36.3543 -6.64575 91.6169
lradius 63.8544
lwrist -22.0351
lhand -28.8445 -1.08423
lfingers 7.12502
lthumb -2.2015 28.8842
rfemur -23.2644 -23.1531 28.8823
rtibia 44.1628
rfoot -0.0276755 41.5036
rtoes 16.0789
lfemur -5.83055 5.66356 -7.03803
ltibia 41.8797
lfoot -27.4046 7.54209
ltoes -17.3907
191
root 1.49019 18.4949 3.53495 -178.885 7.73768 -171.997
lowerback -1.49586 1.55756 5.32373
upperback 11.1524 2.95001 -0.421716
thorax 13.2361 2.50104 -2.93178
lowerneck -1.61428 0.427688 0.979677
upperneck 11.8448 1.27838 -2.25735
head 4.1883 0.775 -0.859728
rclavicle -2.38542e-014 1.11319e-014
rhumerus -21.3722 -6.52788 -83.6501
rradius 43.6647
rwrist -3.72075
rhand -9.9326 10.7978
rfingers 7.12502
rthumb 16.0485 -18.5576
lclavicle -2.38542e-014 1.11319e-014
lhumerus -35.5682 -6.82343 91.9076
lradius 63.8003
lwrist -21.4163
lhand -29.4333 -0.925239
lfingers 7.12502
lthumb -2.77014 29.0365
rfemur -23.8553 -22.4491 28.993
rtibia 44.1609
rfoot -0.905496 40.573
rtoes 14.9765
lfemur -6.25014 5.72744 -7.20025
ltibia 41.4851
lfoot -27.6394 7.27475
ltoes -17.0604
192
root 1.46421 18.503 3.60277 -178.63 7.38776 -172.098
lowerback -1.33378 1.51897 5.07838
upperback 11.1602 2.96061 -0.632681
thorax 13.1415 2.49871 -3.03183
lowerneck -1.9557 0.375487 0.767502
upperneck 11.6746 1.13488 -1.86353
head 4.1853 0.696538 -0.696127
rclavicle -2.78299e-015 -2.54444e-014
rhumerus -21.5278 -6.82768 -83.8234
rradius 43.9654
rwrist -3.88166
rhand -9.83941 10.7475
rfingers 7.12502
rthumb 16.1383 -18.6006
lclavicle -2.78299e-015 -2.54444e-014
lhumerus -34.7889 -7.08503 92.1772
lradius 63.8145
lwrist -20.8715
lhand -30.0007 -0.831806
lfingers 7.12502
lthumb -3.31811 29.1221
rfemur -24.4506 -21.7611 29.0608
rtibia 44.1701
rfoot -1.78829 39.6126
rtoes 13.8422
lfemur -6.71521 5.80091 -7.37453
ltibia 41.1432
lfoot -27.7938 6.97915
ltoes -16.8085
193
root 1.43953 18.5112 3.67414 -178.374 6.98397 -172.243
lowerback -1.14071 1.45899 4.7668
upperback 11.1616 2.94752 -0.837432
thorax 13.0125 2.47722 -3.09248
lowerneck -2.20002 0.316803 0.536526
upperneck 11.4182 0.984935 -1.47774
head 4.1336 0.614702 -0.532762
rclavicle 2.66371e-014 -2.70347e-014
rhumerus -21.7229 -7.10017 -83.9967
rradius 44.2559
rwrist -4.02244
rhand -9.79207 10.715
rfingers 7.12502
rthumb 16.1839 -18.6294
lclavicle 2.66371e-014 -2.70347e-014
lhumerus -33.9852 -7.41594 92.439
lradius 63.8039
lwrist -20.3652
lhand -30.4616 -1.00887
lfingers 7.12502
lthumb -3.7632 28.9376
rfemur -25.0571 -20.9862 29.0716
rtibia 44.19
rfoot -2.7479 38.5067
rtoes 12.5559
lfemur -7.24061 5.86499 -7.57901
ltibia 40.8494
lfoot -27.849 6.63603
ltoes -16.5882
194
root 1.4145 18.5202 3.74791 -178.107 6.56869 -172.456
lowerback -0.935427 1.39646 4.39969
upperback 11.172 2.94026 -1.06155
thorax 12.8855 2.45614 -3.14184
lowerneck -2.5297 0.252472 0.29141
upperneck 11.2107 0.830679 -1.07057
head 4.11779 0.531561 -0.360512
rclavicle 4.01545e-014 3.26007e-014
rhumerus -21.869 -7.38518 -84.1786
rradius 44.4877
rwrist -4.14719
rhand -9.7135 10.659
rfingers 7.12502
rthumb 16.2595 -18.6793
lclavicle 4.01545e-014 3.26007e-014
lhumerus -33.1009 -7.88971 92.6909
lradius 63.7235
lwrist -19.8524
lhand -30.8284 -1.383
lfingers 7.12502
lthumb -4.11748 28.557
rfemur -25.6987 -20.2913 28.999
rtibia 44.2138
rfoot -3.59496 37.4411
rtoes 11.2956
lfemur -7.82069 5.95424 -7.85208
ltibia 40.5995
lfoot -27.8735 6.22522
ltoes -16.4169
195
root 1.39003 18.5298 3.82239 -177.849 6.13425 -172.698
lowerback -0.719921 1.30811 3.9886
upperback 11.1958 2.90288 -1.27817
thorax 12.7624 2.41773 -3.16117
lowerneck -2.89484 0.194647 0.0339034
upperneck 11.0396 0.696025 -0.699062
head 4.12421 0.457575 -0.197393
rclavicle 4.33351e-014 -3.18055e-014
rhumerus -21.9868 -7.61313 -84.3643
rradius 44.6546
rwrist -4.22834
rhand -9.70082 10.6507
rfingers 7.12502
rthumb 16.2717 -18.6866
lclavicle 4.33351e-014 -3.18055e-014
lhumerus -32.2019 -8.42399 92.9447
lradius 63.631
lwrist -19.2911
lhand -31.1345 -1.91419
lfingers 7.12502
lthumb -4.413 28.0198
rfemur -26.3154 -19.4391 28.8682
rtibia 44.2411
rfoot -4.57159 36.2107
rtoes 9.77118
lfemur -8.42343 6.13684 -8.13069
ltibia 40.3961
lfoot -27.8346 5.75035
ltoes -16.5825
196
root 1.36581 18.5397 3.89746 -177.597 5.68352 -172.981
lowerback -0.483653 1.22359 3.54312
upperback 11.2212 2.87621 -1.50347
thorax 12.6292 2.38307 -3.16909
lowerneck -3.24001 0.119028 -0.185794
upperneck 10.8685 0.540537 -0.33836
head 4.12844 0.375913 -0.0457132
rclavicle -1.15295e-014 8.74653e-015
rhumerus -22.113 -7.85007 -84.5619
rradius 44.7401
rwrist -4.19944
rhand -9.77895 10.7038
rfingers 7.12502
rthumb 16.1965 -18.6396
lclavicle -1.15295e-014 8.74653e-015
lhumerus -31.2835 -9.13045 93.1836
lradius 63.5324
lwrist -18.694
lhand -31.3983 -2.45752
lfingers 7.12502
lthumb -4.66775 27.4711
rfemur -26.911 -18.6469 28.6694
rtibia 44.2431
rfoot -5.40027 34.9653
rtoes 8.36351
lfemur -9.04422 6.45332 -8.42093
ltibia 40.2197
lfoot -27.7199 5.07983
ltoes -16.6871
197
root 1.34189 18.5499 3.97158 -177.343 5.24655 -173.288
lowerback -0.244253 1.13271 3.07724
upperback 11.2415 2.83988 -1.72807
thorax 12.4872 2.34177 -3.16534
lowerneck -3.57606 0.0450702 -0.447225
upperneck 10.7185 0.395017 0.0319353
head 4.14 0.299751 0.116916
rclavicle -7.15625e-015 1.51076e-014
rhumerus -22.2435 -8.07586 -84.7553
rradius 44.7396
rwrist -4.05445
rhand -9.83384 10.8906
rfingers 7.12502
rthumb 16.1436 -18.4571
lclavicle -7.15625e-015 1.51076e-014
lhumerus -30.3914 -9.91392 93.4014
lradius 63.4774
lwrist -18.1331
lhand -31.58 -2.95488
lfingers 7.12502
lthumb -4.84322 26.9698
rfemur -27.4801 -17.7566 28.4122
rtibia 44.2301
rfoot -6.25362 33.634
rtoes 6.82041
lfemur -9.68106 6.90791 -8.72407
ltibia 40.092
lfoot -27.5709 4.37041
ltoes -17.0674
198
root 1.31764 18.5691 4.04357 -177.094 4.81941 -173.594
lowerback -0.000911196 1.043 2.61864
upperback 11.2692 2.80508 -1.94618
thorax 12.3536 2.30352 -3.15719
lowerneck -3.90935 0.310507 -0.671048
upperneck 10.5601 0.153108 0.392354
head 4.14932 -0.0443419 0.248777
rclavicle -2.38542e-015 6.83819e-014
rhumerus -22.38 -8.21779 -84.9562
rradius 44.6945
rwrist -3.88771
rhand -9.95519 11.1001
rfingers 7.12502
rthumb 16.0268 -18.257
lclavicle -2.38542e-015 6.83819e-014
lhumerus -29.498 -10.7676 93.5833
lradius 63.4633
lwrist -17.6609
lhand -31.6609 -3.3858
lfingers 7.12502
lthumb -4.92126 26.5371
rfemur -27.9823 -16.8019 28.1179
rtibia 44.169
rfoot -7.03137 32.2379
rtoes 5.3737
lfemur -10.3059 7.33443 -9.03991
ltibia 39.9928
lfoot -27.3286 3.96113
ltoes -18.6393
199
root 1.29341 18.584 4.11513 -176.848 4.39692 -173.941
lowerback 0.248576 0.952682 2.13459
upperback 11.3013 2.77382 -2.17739
thorax 12.2229 2.26728 -3.14773
lowerneck -4.24159 0.194174 -0.894066
upperneck 10.3928 0.00650341 0.737497
head 4.15728 -0.0988705 0.397399
rclavicle 2.70347e-014 3.81667e-014
rhumerus -22.5153 -8.40622 -85.1689
rradius 44.6182
rwrist -3.63306
rhand -10.0244 11.3107
rfingers 7.12502
rthumb 15.9601 -18.0518
lclavicle 2.70347e-014 3.81667e-014
lhumerus -28.6154 -11.7117 93.6996
lradius 63.5057
lwrist -17.2741
lhand -31.6992 -3.65954
lfingers 7.12502
lthumb -4.95827 26.2625
rfemur -28.4689 -15.7871 27.7498
rtibia 44.0976
rfoot -7.81437 30.7484
rtoes 3.74896
lfemur -10.945 7.70795 -9.42153
ltibia 39.9376
lfoot -27.1077 3.37524
ltoes -19.4046
200
root 1.26962 18.6005 4.18778 -176.62 3.97397 -174.276
lowerback 0.549191 0.858667 1.65803
upperback 11.3201 2.73214 -2.39126
thorax 12.0455 2.22531 -3.12588
lowerneck -4.52595 0.0796987 -1.08963
upperneck 10.2366 -0.136969 1.02886
head 4.1609 -0.154534 0.523143
rclavicle 1.11319e-014 -3.97569e-014
rhumerus -22.7625 -8.46994 -85.3636
rradius 44.5793
rwrist -3.41507
rhand -10.1192 11.4575
rfingers 7.12502
rthumb 15.8689 -17.9122
lclavicle 1.11319e-014 -3.97569e-014
lhumerus -27.7653 -12.6961 93.7708
lradius 63.6047
lwrist -17.0149
lhand -31.5881 -3.82007
lfingers 7.12502
lthumb -4.85104 26.1044
rfemur -28.9095 -14.6966 27.3571
rtibia 43.9957
rfoot -8.50279 29.1752
rtoes 2.1755
lfemur -11.5697 7.92543 -9.81563
ltibia 39.9026
lfoot -26.8854 2.80262
ltoes -19.7932
